/* XPM */
static char *msl_xpm[] = {
/* width height num_colors chars_per_pixel */
"   103    38      256            2",
/* colors */
".. c #081820",
".# c #6c8ba0",
".a c #1c4f6f",
".b c #a4c6dc",
".c c #64503a",
".d c #a8906c",
".e c #d4c9b6",
".f c #3c6b86",
".g c #666f73",
".h c #d4e8f3",
".i c #342c20",
".j c #acaaa0",
".k c #484f53",
".l c #88a6b8",
".m c #84705a",
".n c #8c8a74",
".o c #ece7df",
".p c #12344a",
".q c #c4ae8c",
".r c #878d94",
".s c #ecf8fb",
".t c #64747f",
".u c #354044",
".v c #2a5e76",
".w c #dcd6bc",
".x c #a4bbca",
".y c #495f69",
".z c #14425c",
".A c #645e51",
".B c #507a8c",
".C c #a49f8f",
".D c #847e69",
".E c #889ca9",
".F c #647f92",
".G c #c4e2f4",
".H c #4f3f29",
".I c #586c73",
".J c #3a5059",
".K c #ece9ec",
".L c #baab91",
".M c #ecd7bf",
".N c #846947",
".O c #243440",
".P c #bccace",
".Q c #64605e",
".R c #b4a088",
".S c #082434",
".T c #445664",
".U c #94826c",
".V c #d7dce1",
".W c #546066",
".X c #bcd2e4",
".Y c #777f83",
".Z c #dbf8fc",
".0 c #948a74",
".1 c #fcf8e9",
".2 c #949c9f",
".3 c #f4efe1",
".4 c #7c9aa8",
".5 c #d4c8c4",
".6 c #2a4453",
".7 c #b6b0ad",
".8 c #29566a",
".9 c #c4bcb1",
"#. c #4c4834",
"## c #57737a",
"#a c #242214",
"#b c #7b8b92",
"#c c #4c6b7b",
"#d c #979194",
"#e c #36414d",
"#f c #346078",
"#g c #b4bcc1",
"#h c #726952",
"#i c #948b7f",
"#j c #e1f0f8",
"#k c #3c3627",
"#l c #94b4c8",
"#m c #a4a5a6",
"#n c #8a8076",
"#o c #243d52",
"#p c #645841",
"#q c #345972",
"#r c #95a1ad",
"#s c #7c6f59",
"#t c #78797d",
"#u c #c0d0d4",
"#v c #294a5c",
"#w c #d4bcac",
"#x c #a4998e",
"#y c #aab4ba",
"#z c #1b3a4b",
"#A c #4a6679",
"#B c #f0f1f1",
"#C c #545961",
"#D c #3c6586",
"#E c #5a4f3d",
"#F c #867762",
"#G c #745f41",
"#H c #67859d",
"#I c #e4e0de",
"#J c #7b93a3",
"#K c #9b9387",
"#L c #2c4f63",
"#M c #d9d1b9",
"#N c #fce8d2",
"#O c #88949c",
"#P c #e3dfd3",
"#Q c #fcfefb",
"#R c #9aa2a3",
"#S c #c4bcbc",
"#T c #374855",
"#U c #fcf1ed",
"#V c #9aa8b2",
"#W c #687a83",
"#X c #466075",
"#Y c #bab2a2",
"#Z c #ccc6ba",
"#0 c #b9a689",
"#1 c #445a78",
"#2 c #566675",
"#3 c #788690",
"#4 c #3b667b",
"#5 c #745a38",
"#6 c #787068",
"#7 c #44728c",
"#8 c #e4e7e7",
"#9 c #f2fefc",
"a. c #aca694",
"a# c #1c1204",
"aa c #1e2d3c",
"ab c #cceefc",
"ac c #473925",
"ad c #eee1da",
"ae c #102c3c",
"af c #bfd9ec",
"ag c #686865",
"ah c #947654",
"ai c #b4c8d2",
"aj c #2c2214",
"ak c #a99881",
"al c #5c7c8e",
"am c #94867f",
"an c #b4c1cf",
"ao c #585552",
"ap c #293b43",
"aq c #d7d1cb",
"ar c #7c7770",
"as c #443e34",
"at c #e4d6c1",
"au c #ccd6dc",
"av c #241e0c",
"aw c #e4fafc",
"ax c #4c718f",
"ay c #ece0c9",
"az c #1c3441",
"aA c #5c4932",
"aB c #343a3f",
"aC c #66594f",
"aD c #85796e",
"aE c #444a50",
"aF c #443a38",
"aG c #74695c",
"aH c #061e30",
"aI c #37322c",
"aJ c #c9b69f",
"aK c #a9c2cf",
"aL c #242a2c",
"aM c #142630",
"aN c #cccecf",
"aO c #e4cfb9",
"aP c #b4cee4",
"aQ c #6492a4",
"aR c #1c4a62",
"aS c #8c866c",
"aT c #6c8694",
"aU c #cce6f4",
"aV c #4a5a65",
"aW c #95866f",
"aX c #d7e2e7",
"aY c #5a666b",
"aZ c #b8b6b2",
"a0 c #ccc2b4",
"a1 c #b8c2c4",
"a2 c #99bacc",
"a3 c #8b867b",
"a4 c #dcc2ac",
"a5 c #9aaeb6",
"a6 c #a49181",
"a7 c #a7acb1",
"a8 c #868b8a",
"a9 c #d8d7d2",
"b. c #4e4136",
"b# c #576d7e",
"ba c #355166",
"bb c #b5aca0",
"bc c #7c6a57",
"bd c #75828f",
"be c #28455d",
"bf c #2b5975",
"bg c #577487",
"bh c #1c2428",
"bi c #778d9e",
"bj c #1a3b55",
"bk c #8ca2ac",
"bl c #999695",
"bm c #c8c2bd",
"bn c #dcfefc",
"bo c #fcfeeb",
"bp c #7ca2b4",
"bq c #4c7284",
"br c #647a8e",
"bs c #b4a69a",
"bt c #5c8291",
"bu c #c4b1a1",
"bv c #b4a196",
"bw c #746152",
"bx c #2c516f",
"by c #cccac8",
"bz c #e4dad0",
"bA c #24516c",
"bB c #6c5239",
"bC c #dcc9b8",
"bD c #446c84",
"bE c #dce8ec",
"bF c #3c2e1c",
"bG c #f4e8dc",
"bH c #f4f8f9",
"bI c #6c767e",
"bJ c #acbdc5",
"bK c #1c465d",
"bL c #6c614d",
"bM c #aca08e",
"bN c #8c8069",
"bO c #6c7f8e",
"bP c #cce0ec",
"bQ c #2c343d",
"bR c #c4c9cc",
"bS c #4c545c",
"bT c #9c8264",
"bU c #5c6163",
"bV c #c4cfdc",
"bW c #9c8c6f",
"bX c #9c9b9c",
"bY c #fcf1df",
"bZ c #ccbcaa",
"b0 c #544833",
"b1 c #3c5f73",
"b2 c #bcbdbc",
"b3 c #9c8d7d",
"b4 c #9cb4c0",
"b5 c #aca69f",
"b6 c #2c3d50",
"b7 c #6c5634",
"b8 c #3c5969",
"b9 c #ac9a8c",
/* pixels */
"#Q#Q#Q#Q#Q#Q#Q#QbHbH.s#9#Q#9#9#Q#Q#Q#Q#B#Q#Q#Q#Q#Q#Q#Q#Q#Q#Q#Q.1#Qbo#Q#Q#9.s#Q#Q#Q#Q.1#QbH.1#Q#Q#Q#Q#Q#Q#Q#Q#Q#Q#Q#Q#Q#Q#Q#Q#Q#Q#Q#Q#Q#Q#Q#Q#Q#Q#Q#Q#Q#Q#Q#Q#Q#Q#Q#Q#QbH#Q#Q#Q#Q#Q#Q#Q#Q#Q.K#B#Q#9.s#QbH#Q#QbH",
"#Q#Q#Q#Q#Q#Q#Q#Q#Q#Q#9#Q#9#9#9#9.s#B#Q#Q#Q#Q#Qbo#Q#Q#Q#Q#Q#Q#Q#Qbo#Q#Q#Q#9#9#9#9bH#9.s#QbH#Q#Q.1#Q#Q#Q#Q#Q#Q#Q#Q#Q#Q#Q#Q#Q#Q#Q#Q#Q#Q#Q#Q#Q#Q#Q#Q#Q#Q#Q#Q#Q#Q#Q#Q#Q#Q#Q#Q#Q#Q#Q#Q#Q#Q#Q#Q#Q#Q#Q#Q#Q#Q#Q#Q#Q#Q#Q",
"#Q#Q#Q#Q#Q#QbHbH#Q#9#9#9aw#9#9aw#9aw#Q#j#Q#Q#Q#Q#Q#Q#Q#Q#Q#Q#Q#Q#Q#Q#Q#9#9aw#9#9.s#9#9#Q#Q#QbH#B.1#Q#Q#Q#Q#Q#Q#Q#Q#Q#Q#Q#Q#Q#Q#Q#Q#Q#Q#Q#Q#Q#Q#Q#Q#Q#Q#Q#Q#Q#Q.1.1#B#B#Q#9bH#9#Q#Q#QbH#9bHbH#Q#Q#Q#Q#Q#Q#Q#Q#Q",
"#Q#Q#Q#Q#Q#Q#Q#Q#9aw#9#9aw.Zbnawawaw#j#Q#Q#Q#Q#Q#Q#Q#Q#Q#Q#Q#Q.1#Q#Q#9abawawaw#9abaw#9#9#9.sbH#Q#Q#Q#Q#Q#Q#Q#9#9#B.s#9#9#9.s#9#9#9#Q#9.s#j.s#jbH#Q#Q#Q#Q#Q#Q#UbH#Q#Q#Q#9#9#9#9#9.s.s.s#9.s#9#Q#QbH#Q#Q#Q#Q#Q#Q",
"#Q#Q#Q#Q#Q#Q#Q#Q#y.Jba.6bK.8.8#qbA.6#1.P#9#Q#Q#Q#Q#QbH#Q#QbH#Q#Q#Q#9#9alb1aR#zbAb1bg#b#bbd.Y#g#Q#Q#Q#Q#Q#Q#9bE#9#9#9#jbP#V#bbibibdbi#VaU#9#9#9#Q.s#Q#Q#Q#Q#Q#Q#Q#Q#QbE#9aw.Z.Zaw#9#9aw#9aw#9.s#Q#Q#Q#Q#Q#Q#Q#Q",
"#Q#Q#Q#Q#Q#QbHbH.E#zba#vb1.vaR.v#qbxaaaK#9#Q#Q#Q#Q#QbH#Q#Q#Q#Q#Q#9#9#9.8.v.fbf.vbe#z#z#eaB#Ta7#Q#Q#Q#QbHbH#9#9#9ab.E.y.J#T.6#T#e.6#T#vbe.6aiaw#9.s#Q#Q#QbH#Q#Q#Q#Ba7aY.T.Jba#Lbx#XbgaTbObibd.YaX#8#Q#Q#Q#Q#Q#Q",
"#Q#Q#Q#Q#Q#QbH#9bH.G.x#v#q.8.vaR.8bf#obibH#9#Q#Q#Q#Q#QbH#Q#B#Q#QbHawaUax#f.v#f.8aRbKaM#ybJ#g#B#Q#Q#Q#Q#9#9#9bnbpb8b8.y#oaz.gbrbr#A#Tbebab8#o.tbP#9#9#Q#Q#Q#QbH#Q#B.2ap#T#L#q#q#L#L#q.6aa.Jaa#T#j#Q#Q#Q#Q#Q#Q#Q",
"#Q#Q#Q#Q#Q#Q#Q#Q.sawaUb1.vbA.vaRbxbxazb##9#9#Q#Q#Q#Q#Q#Q#Q#Q#Q#QbH#9bi#fbA.aaRbAbKaHaa.s#9#9#Q#Q#BbH#Q#9#9.X.#b8b8#X#zaH#O#9aw#9#9af#A.pb8azapa5#9#9#Q#Q#Q#Q#Q#Q#Q#9#9.h#l#qbx.8#q#z#oaz#2bJbJ#QbH#Q#Q#Q#Q#Q#Q",
"#Q#Q#Q#Q#Q#Q#QbH#9bnaf#X#LbD.8bfbA#1b6aa.s#9#Q#Q#Q#Q#Q#Q#9#Q.s#9#9bi#c.f#Dbf#q.z.Saz.y#B.s#Q#Q#Q#Q#Qaw#9b4bD#Abf#zae#L#j#9.s#9#9#9#9#9.Xbeaeap.h#9#9#Q#Q#Q#Q#Q#Q#Q#9#9aw.ZbD.f.z.z#z.S.I#9#9.s#B#Q#Q#Q#Q#Q#Q#Q",
"#Q#Q#Q#Q#Q#Q#Q#Q#Qaw.xb1#vaQ#f#q#L#1beaM.V#9#Q#Q#Q#Q#Q#Q#9#Q.s#Qaib#ba#7bD#Dbfbe.Sae#RbH#Q#Q#Q#Q#Q.s#9#9.Fb1#7bK.pae#J#9.s#Q#Q#9#9aw#9#9aTb6.J#9#Q#9#Q#Q#Q#Q#Q#Q#Q#Q#9.ZafbDbDbAbK.p.Sa7#9.s#9#QbH#Q#Q#Q#Q#Q#Q",
"#Q#Q#Q.1#QbH#Q#Q#Q#9bkb1#za2bt#1bx#1b6aabJ#Q#Q#Q#Q#Q#Q#Q#9#9#Q#jbdbg.pax.fax#L#L.6..au#Q#Q#B#Q#Q#9.s#9#9#c#c#fbKbAaHb4#9#B#QbH#B#Q#9#9#9#r#TaY#9#9#Q#Q#Q#Q#Q#Q#Q#Q#Q#9#9#lal#4#fbKae..aX#9#Q#Q#QbH#Q#Q#Q#Q#Q#Q",
"#Q#Q#Q#Q#Q.1#Q#Q#Q#9aT#X#z.Gbpb1b1#1b6bQ.rbH#Q#9bo#Q#Q#9#9#9#9#y#2#A#Hax#DbD#vbeazaMbH#Q#Q#B#Q#Q#Q#9#9awb#bq#faR#L.SaK#9bH#Q.1.1#Q#Q#9#9.P#T#O#9bH#Q#Q#Q#Q#Q#Q#Q#Q#Q#9#9.#bt#q#fbeaeap#jbH#Q#B#Q#Q#Q#Q#Q#Q#Q#Q",
"#Q#Q#Q#Q#Q#Q#Q#QbH#j#A#A#v.Za2#c#A#2b6b6.Y.s#Qbo#Q#Q#9#Q#9#9#j#Wb#.6#9#HaxbD#Xap...W#Q#Q#Q#Q.1bH#Q#9#9aw.B#A.fbAbAbe#O#9bH#U#Q#Q.1#BbHbH.s#e.P#QbH#Q#Q#Q#QbHbHbH#Q#Q#9awalbg#f#LbKae.gbH#Q#Q#QbH.1#Q#Q#Q#Q#Q#Q",
"#Q#Q#Q#Q#Q#Q#Q#Q#Q.P#Wb8.Iawaub##A#Dbe#e.O#9#QbH#Q#Q#Q#Q#9#9.r.I#Ta5aw.#.Bb##T#T...r#Q#Q.1#Q#Q#Q#Q#9#9awbg#4bf.fb1baazaX#Q.1#Q.1#U#Q#Q#B#Q.u#j#Q.sbH#Q#Q#Q#QbH#Q#Q#QbH.hbrbq#c.6#z.Sa8#QbHbH#Q#Q#Q#Q#Q#Q#Q#Q#Q",
"#Q#Q#Q#Q#Q#Q#QbH#Q.x.tb8#b#9bEbrb#b#ba#T.6.s#Q#Q#Q#Q#Q#9#9#u#3.W.t#jaw.Fal#A#T#ebhaZ#Q#Q#Q#Q#Q#Q#Q#9#9#9b#albf.f#4ba#L#O.s#BbH#Q#QbHbH#Q#Q#Q#Q#B#Q#Q#Q#QbH#Q.1#QbH#9#9aP.Fal#X#T.OaLb2.o#Q#Q#Q#Q#Q#Q#Q#Q#Q#Q#Q",
"#Q#Q#Q#Q#Q#Q#Q#Q#Q#V#W.JaK#9.sbObgbg#1be.O.P#BbH#Q.1bH#9#9#O.t.Ja1#9.Z.Fal#A#T#eaL.K#QbH#Q#QbH#Q#Q#Q.s#9#1al.fbf#7#4#A#A#3#Q#Q.K.K#Q#Q.K#Q#Q#Q#Q#Q#Q#Q#Q#Q#Q#Q#QbH#9#9a2bi#H#A.6bQaL#B#Q#Q#QbH#Q#Q#Q#Q#Q#Q#Q#Q",
"#Q#Q#Q#Q#Q#QbH#Q#Qbd#2.Taw#9#9a5brbObgb8#T#3bHbHbH#B.s#9#O.t#TbE#9#9a2.##H#1#Taaag#Q#Q#Q#Q#Q#Q#Q#Q#QbH#9.t.ybt.8#c###c##.I.t#R#j#9#BbH#QbH#Q#9#Q#Q#Q#Q#Q#Q#Q#Q#Q#Q#9.saTbi#H#AbQ.ObI#Q#Q#Q#Q#Q#Q#Q#Q#Q#Q#Q#Q#Q",
"#Q#Q#Q#Q#Q#Q#Q#Q#Q.Y.I.t#9#9#9aibraTal#1.T.t#Q#Q#Q#Q#QaK.YaV#J#9#9aw#V.#.F#X#T.O#r#Q.1#Q#Q#Q#Q#Q#Q#Q#Q.s#y.y#A#####calbr.I#2#Wbd#y#Q#QbH#Q#Q#Q#Q#Q#Q#Q#Q#Q#Q#Q#Q#9#9.V.4bi.#.yb6.OaZ#Q#Q#Q#Q#QbH#Q#Q#Q#Q#Q#Q#Q",
"#Q#Q#Q#Q#Q#Q#Q#Q#Q#3aY#r#9#9#9.Vbrbibr.y.JaE.s.sbH#QbE#3#W.gbE#9#9#j.lbibg#AbQ.Oau#Q#Q#Q#Q#Q#Q#Q#Q#B#Q#B.s.2.J.I.y####.IaTbrbr#2.Ia7bE#Q#Q#Q#Q#Q#Q#Q#Q#Q#Q#Q#Q#Q#QbHaibk#3.#.Tb6bQaX#Q#Q#Q#Q#Q#Q#Q#Q#Q#Q#Q#Q#Q",
"#Q#Q#Q#Q#Q#Q#QbH#Q.Y.T#y#9#Q#9.sbd#Jbrb#.WaE#QbH#Q#9#u#W.ya1#9#9bH#j#Vbibr.y#zbQ#Q#Q#Q#Q#Q#Q#Q#Q#Q#Q#QbH#Q#j#Rap.J##.Ialbg.FbO#3.taV.r.V#Q#9bH#Q.1#Q#Q#Q#Q#Q#QbH#Q.sa7bkbiaT#TbQ#e#B#Q#Q#Q#QbH#Q#Q#Q#Q#Q#Q#Q#Q",
"#Q#Q#Q#Q#Q#Q#Q#Q.sbI.y#Q#9#Q#QbH#Obibd.taY#ebR#Q#9#Q#b#W#W.s#9#Q.sbE#O.Ebg.TbQaY#QbH#Q#Q#Q#Q#Q#Q#Q#Q#Q#QbH#Q#9.Pag.J.T.Ibr#Hbrbgbi#3bS.Y#B#Q#Q#Q#Q#Q#Q#QbH#Q#Q.1#QbH#V.E.Ebd.k#ebU#Q#Q#Q#Q#Q#Q#QbH#Q#Q#Q#Q#Q#Q",
"#Q#Q#Q#Q#Q#Q#QbH#8#t.I#Q#9#Q#Q#9#r#O#bbI.gaBb2#Q#Q#9#b#C.P#Q#9#QbHbR#y.Eb#aV.O#b#Q#U#Q#Q#Q#Q#Q#Q#Q#QbH#Q#Q#Q#Qbo.V#b.T.ybg#3#HbObdbI.g.gaYbHbH#Q#Q#Q#Q#Q#Q#Q.1#Q#B#B#Va7#Obib6aBa7bH#Q#Q#Q#Q#Q#Q#Q#Q#QbH#U#Q#Q",
"#Q#Q#Q#Q#Q#Q#QbHa9.Ya3#9#Q#Q#Q#Q#g#r#O#3.g.g#t#Q#Q.V.I.r#9#QbH#Q#Q.7#y#OaYaVbQb2#QbH#Q#Q#Q#Q#Q#QbH#QbH#Q#Q#QbH#Q#Q.s#y.g#XbObi#J#3bd#tbUbU#Q#Q#QbH#Q#Q#Q#Q#Q#Q#Q.1aXa7a7.Ebd#TbQaNbH#Q#Q#Q#Q#Q#Q#Q#Q#Q#Q#Q#Q#Q",
"#Q#Q#Q#Q#Q#Q#Q#QaZbU.VbH#Q#Q#Q#Qa9a7bX#d#t.Q.QbHaqb2#y#Q.sbH#Q.1aq.9aZa8#C.kaE#Q#Q#Q#Q#Q#Q#Q#Q#Q#Q#B#U#QbH#Q.1#Q#Q#B#Q#Q#B#3bI#3.r.r#O.gaY.VbHbH#Q#Q#Q#Q#Q#9#Q.1#QbmaZa7.2bd#TbS#Q#Q#Q#Q#Q#Q#Q#Q#Q#QbHbH#Q#Q#Q",
"#Q#Q#Q#Q#Q#Q#9#Qa7bU#B#Q#QbH#QbH.K.7bX#d#tar.Q#Ua7.r.sbH#Q#Q#Q.1a0aZ.7#t#CaE#t#QbH#Q#Q#Q#Q#Q#Q#Q#BaNaN#QbH#Q#Q#Q#Q#Q#QbH#QbR.r.r#O#O#O.Y.W#R#Q.1#Q#Q#Q#Q#Q#9#Q.1.1aZ#g#y#O.YaB.r#Q#Q#Q#Q#Q#Q#Q#Q#Q#QbH#Q#Q#Q#Q",
"#Q#Q#Q#Q#Q#Q#Q#8#R#t#Q#Q#QbH.1#Q#U.7bX#dam#naD#da7aBbHbH#Q.1.1#Q.9bbb5agaoaB.j#Q.1#Q#Q#Q#Q#Q#Q#Qa9.j#m#B#Q#Q#QbH#B#Q#Q#QbH#Q.7.rbl#O#O#b.y#t#Q#Q.1.1#Q#Q#Q#Q#Q#Q.o.7aZ#ma8bIbQb2#B#Q#Q#Q#Q#Q#Q#Q#QbH#Q#QbH#Q#Q",
"#Q#Q#Q#Q#Q#Q#Qby#K#dbH#QbH#Q#Q#Q#Q.7#dam#tam#6.Q.Q#6#Q#Q#Q.1#QbGbsbMbsaCaoaIa9#Q#Q#Q#Q#Q#Q#Q#Q#QbRbla8bH#Q#QbH#Q#Q#Q#B#U#QbHbzbl.rbX#O#b.Wbd#Q#Q.1#Q#Q#Q#Q#9#Q#Qbybb#ybl#baY.u#8bH#Q#Q#Q#Q#Q#Q#Q#QbH#Q.Kby.K#Q",
"#Q#Q#Q.1#Q.1.1#Y#x#S#U#Q#Q#Q#U#Q#UaZamamaD.UaFb.aFaN#Q#Q#U#Q.1bzbvb9a6bLaF.i#Q#QbH#QbH#Q#Q#Q#Q#Qbm#d#t#U#Q#Q#Q#9#Q#Q#Q#QbH#U#Qb5#d#m.r.Y.Wbl#B#Q#Q#Q#Q#QbH#QbH#Q#Y.ja.a3.YaoaEbH#Q#Q#Q#Q#Q#Q#Q#Q#Q#Q.1.7.raq#Q",
"#Q#Q#Q#Q#Q.1#Ubs#n.5bH#Q.K#Q#Q#Q.1.5.U.U#FaC#Eaj#d.KbH#Q#U#Q#UbCbvb9b3aCaFaC#Q#UbH#Q#Q#Q#Q#Q#Q.1.7#xaDbb#Q.1#Q#Q#9#Q#Q#QbH#Q#QaZ#db5#iag#E#V#Q#QbG#Q#Q#Q#9#Q#Q.1a..C.Carar.A#t#Q#Q.K#Q#Q#Q#Q#Q#Q.1#Qaq#K.Q.o#Q",
"#Q#B#Q.1.1.1bGbv#n#U#Q#Q#QbHbH#Q#Qata6.U.mb.#kb..o.1bH#Q#U#QbGaJbMa6bT#EaI#d#Q#B#Q#Q#Q#Q#Q#Q#Q#Qb3#xbN.m.1bobH.sbH#Q#Q#Q#Q#U.1aqb3bl#xaCasbV#Q#Q.1bo#Q#Q#Q#Q#Qay.CakbW.D#h#p.C#Q#Q#Q#Q#Q#Q#Q#Q.1#QbGbsaD#6#Q#Q",
"#QbH#QbY.1.1bCa6#n#Q#U.1#Q.1#QbH.1bGbMb3aCaca#bv.1#Q#Q#Q.1.1bG.L.Rb9.U.HbFa0#Q.1#Q#Q#Q#Q#Q#Q#QbYbM#xa6#s#Nbo#Q#Q#Q.1bH.1.1#Q#Ub5bsbsbLaEaI.s#Q#Q#Q.1#Q#Q#Q#Qbo.w.R.RbWbN#G#EbCbH#U#Q#QbHbH#U#Q.1.1bZb3bwa.#Q#Q",
".1bo.1bobYay.e.LbNbYbobobo#QbH#U.1.1aWaGbF.ia0bG#U#Q.3.1bo.1at#0akbW.mb7#pay.1.1bH#Q#Q#Q#Q#Q#QbG#xbMaD#FbNbG.1#Qbo.1.1.1.1.1.e.e#K#h#.avag#Q#Qbo.1.1#Q#Q.1bobYaJ.q#0.dbT.N#5bY.1.1#Q.1.1.1.1#U.Ma4b9bcaA.1.1#Q",
".1#Q#Z#M.e.qb3bNbL.L.e.w.e.o.3.K#BbGarbLaIbLadbz.o#Bby.5aO.ebMbW#s#Gb7#Eb7a.#Z#Z#M#Q#Q#Q#Q#Q#QbG#xar#FbLbLaW.3.1bobo.1bYbYay#0a.#s#kaj#.#P#Q#Q#Q#Q#Q#Q.1#U.1#NaJ#0.dahah.N#5a4bG#U#NbGbY#Nay.M#w#0.maA.UbYbo#Q",
"#Q.1a3b3.0aS#pbLb0#haS.n.D.K#B#B.oa9agaC#Ebb.9.V.5.Vb5#n#K.0bL#hb0.H#.b0#E#har.D.C#Q#Q#Q#Q#Q#Q.1.3a3aGbL.A#FbW#Yat#NbY#NatbMbM#h#.as#h#Z.1#Q#Q#Q#Q#Q#Q#I#MbC.qakbT.Nb7b7.c.c.Ubv#wbu#wbZaJ#0#0aW.m.H.H.e.1bo#Q",
".1adaZ#xb3#Kb3.0.0.0.0#K#K#8#I#Iaq.5aZ.jbbb5#mb5.7b2a9bm#Z.ebZ.9#Y#0bM#F.D.D.Da3.C#Q#Q#Q#Q#Q#Q#Q.1#Q#Yar#pbLbNa6bMbMakak.d.U#pb.#E#iad.1.1#Q#Q#Q#Q#Q#Baq#xa6#sbc.cb0.Hac.H.Hb.bw#i#n.Uam.UaD#FbBac.HaA#PbobG#Q",
"#Q#Q#Q#Q#Q#Q#Q#Q#Q#Q#Q#Q#Q#Q#Q#Q#Q#Q#Q#Q#Q#Q#Q#Q#Q#QaN#Iad.KbGbGbG#P.w#Z.9.7b5blbl#Q#Q#Q#Q#Q#Q#Q#Q#Qbo.3#K#6aGbLbLbcbcbL.c#EaGak.9aqa9#Q#Q#Q#Q#Q#Q#Q.K#Ib5.CakbWaSahbNah#F#F#naDaDaDaDaDaDaDaD#naW#nb5bz#Q#Q#Q",
"#Q#Q#Q#Q#Q#Q#Q#Q#Q#Q#Q#Q#Q#Q#Q#Q#Q#Q#Q#Q#Q#Q#Q#Q#Q#Q#Q#Q#Q#Q#Q#Q#Q#Q#Q#Q#Q#Q#Q#Q#Q#Q#Q#Q#Q#Q#Q#Q#Q#Q#Q#Q#Q#Q#Q#Q#Q#Q#Q#Q#Q#Q#Q#Q#Q#Q#Q#Q#Q#Q#Q#Q#Q#Q#Q#Q#Q#Q#Q#Q.1.3.3.obzaqa0aZ.7.jb5bbbb#Y.9aq#P#I.obHbHbH#Q",
"#Q#Q#Q#Q#Q#Q#Q#Q#Q#Q#Q#Q#Q#Q#Q#Q#Q#Q#Q#Q#Q#Q#Q#Q#Q#Q#Q#Q#Q#Q#Q#Q#Q#Q#Q#Q#Q#Q#Q#Q#Q#Q#Q#Q#Q#Q#Q#Q#Q#Q#Q#Q#Q#Q#Q#Q#Q#Q#Q#Q#Q#Q#Q#Q#Q#Q#Q#Q#Q#Q#Q#Q#Q#Q#Q#Q#Q#Q#Q#Q#Q#Q#Q#Q#Q#Q#Q#Q#Q#Q#Q#Q#Q#Q#Q#Q#Q#Q#Q#Q#Q#Q#Q"
};
